<?xml version="1.0" encoding="iso-8859-1"?>
<!-- Generator: Adobe Illustrator 19.0.0, SVG Export Plug-In . SVG Version: 6.00 Build 0)  -->
<svg version="1.1" id="Layer_1" xmlns="http://www.w3.org/2000/svg" xmlns:xlink="http://www.w3.org/1999/xlink" x="0px" y="0px"
	 viewBox="0 0 495 495" style="enable-background:new 0 0 495 495;" xml:space="preserve">
<g>
	<path style="fill:#3E3D42;" d="M195.32,389.47h-37.6v100c18.45,0,38.58-12.45,46.82-28.95l42.958-85.997l-22.356-44.754
		L195.32,389.47z"/>
	<polygon style="fill:#3E3D42;" points="422.89,23.41 387.11,5.53 247.5,285.012 269.856,329.766 	"/>
	<path style="fill:#FF0C38;" d="M0,439.48v9.99c0,22.06,17.94,40,40,40h117.72v-49.99H0z"/>
	<path style="fill:#FF3F62;" d="M157.72,389.47H40c-22.06,0-40,17.94-40,40v10.01h157.72V389.47z"/>
	<path style="fill:#3D9AE2;" d="M337.28,489.47H455c22.06,0,40-17.94,40-40v-9.99H337.28V489.47z"/>
	<path style="fill:#78B9EB;" d="M455,389.47H337.28v50.01H495v-10.01C495,407.41,477.06,389.47,455,389.47z"/>
	<path style="fill:#1D1D1F;" d="M337.28,389.47h-37.6l-29.824-59.704L247.5,285.012L107.89,5.53L72.11,23.41l153.032,306.359
		l22.356,44.754l42.952,85.987c8.25,16.51,28.38,28.96,46.83,28.96V389.47z"/>
</g>
<g>
</g>
<g>
</g>
<g>
</g>
<g>
</g>
<g>
</g>
<g>
</g>
<g>
</g>
<g>
</g>
<g>
</g>
<g>
</g>
<g>
</g>
<g>
</g>
<g>
</g>
<g>
</g>
<g>
</g>
</svg>
