<?xml version="1.0" encoding="iso-8859-1"?>
<!-- Generator: Adobe Illustrator 19.0.0, SVG Export Plug-In . SVG Version: 6.00 Build 0)  -->
<svg version="1.1" id="Layer_1" xmlns="http://www.w3.org/2000/svg" xmlns:xlink="http://www.w3.org/1999/xlink" x="0px" y="0px"
	 viewBox="0 0 261.155 261.155" style="enable-background:new 0 0 261.155 261.155;" xml:space="preserve">
<g>
	<path style="fill:#33B3E2;" d="M254.524,126.346c0.281,22.826-6.028,45.008-16.597,65.02c6.751-29.979,6.55-76.393-14.547-100.665
		c0.121-0.161,0.161-0.362,0.08-0.522c-2.572-8.158-3.376-30.702,11.372-26.201c0.322,0.121,0.563,0.121,0.804,0.08
		C247.25,82.182,254.242,103.44,254.524,126.346z M247.25,127.15c0.161,0.764,1.447,0.603,1.366-0.201
		c-0.281-2.692-1.085-5.104-2.451-7.434c-0.482-0.844-1.768-0.121-1.326,0.723C246.044,122.408,246.808,124.739,247.25,127.15z
		 M237.847,71.252c0.563,0.643,1.728-0.241,1.205-0.924c-1.889-2.451-4.581-3.657-7.675-3.496c-1.045,0.04-1.045,1.648,0,1.607
		C233.908,68.358,236.119,69.403,237.847,71.252z M237.043,76.436c0.281,0.965,1.768,0.563,1.487-0.402
		c-0.884-2.974-3.456-5.184-6.631-5.144c-0.522,0-0.643,0.804-0.121,0.884C234.31,72.337,236.319,73.904,237.043,76.436z"/>
	<path style="fill:#1D1D1B;" d="M210.038,29.017c43.32,34.399,58.792,92.829,40.105,144.467
		c-9.042,24.995-24.835,48.464-44.486,66.387c-20.253,18.405-48.343,21.62-74.826,21.258c-0.764-0.04-1.206-0.563-1.286-1.165
		C69.75,263.379,20.201,215.317,7.06,159.138c-13.1-56.22,7.716-107.175,55.135-140.128C106.037-11.45,169.45-3.253,210.038,29.017z
		 M237.927,191.367c10.569-20.012,16.878-42.195,16.597-65.02c-0.281-22.906-7.274-44.164-18.887-62.288
		c-0.241,0.04-0.482,0.04-0.804-0.08c-14.748-4.501-13.944,18.043-11.372,26.201c0.08,0.161,0.04,0.362-0.08,0.522
		C244.477,114.974,244.678,161.388,237.927,191.367z M234.149,197.957c6.751-37.252,6.872-84.35-21.097-113.685
		c-4.219-2.451-8.439-4.782-13.583-4.742c-5.546,0.08-11.252,2.652-15.19,6.51c-8.318,8.238-7.796,18.285-6.309,28.572
		c2.371,4.139,4.139,8.6,5.144,12.9c9.564,41.431,6.952,84.631-5.586,125.098c4.22-1.406,8.198-3.054,11.774-5.063
		c12.056-6.751,22.142-18.244,30.662-28.853c5.224-6.51,10.006-13.382,14.226-20.535
		C234.19,198.078,234.149,198.038,234.149,197.957z M220.165,87.447c-4.501-10.609,0-29.054,12.699-27.527
		c-9.323-13.342-21.218-24.835-34.841-33.877c-25.277,8.559-46.294,23.83-66.186,41.391c-12.819,11.332-24.674,24.554-38.94,34.158
		c-7.274,10.448-0.04,23.79,11.332,28.492c11.493,4.782,21.298,0.281,29.496-7.957c0.603-0.603,1.407-0.362,1.808,0.201
		c-0.08-0.683-0.161-1.326-0.241-2.009c-0.442-7.113,1.969-13.181,8.278-16.677c0.04-0.04,0.08,0,0.12-0.04
		c11.252-9.564,22.504-4.461,30.26,5.144c-1.407-9.685,2.371-20.374,9.765-26.482c10.85-9.001,24.915-6.912,34.962,2.17
		c0.603,0.482,0.522,1.165,0.161,1.648C219.321,86.522,219.723,87.005,220.165,87.447z M173.871,253.212
		c7.796-25.478,12.096-51.639,11.493-78.362c-0.522-22.825-4.943-86.118-40.869-68.878c-14.266,14.025,7.354,36.489,0.965,54.21
		c-3.416,9.564-11.734,15.592-21.298,15.15c15.753,11.533,25.719,37.091,4.541,48.183c1.045,0.603,2.09,1.165,3.094,1.848
		c0.281-0.12,0.603-0.201,0.924,0c6.952,4.139,10.649,12.417,9.564,20.454c-0.643,4.903-3.335,9.564-7.515,11.694
		c0.04,0,0.04,0,0.08,0c0.683,0,0.964,0.482,0.964,0.964c11.895,0,25.719-1.286,38.016-4.782
		C173.831,253.534,173.791,253.373,173.871,253.212z M194.526,23.833c-12.458-7.676-26.201-13.382-40.708-16.597
		c-17.762,6.872-34.921,14.145-50.714,24.996C84.98,44.649,52.55,69.162,57.734,94.64c0.04,0.241-0.04,0.442-0.121,0.643
		c0.965,3.054,2.733,5.787,6.068,7.917c6.59,4.139,14.467,3.496,21.379,0.522c0.281-0.121,0.563-0.121,0.804-0.08
		C123.558,77.199,149.679,39.626,194.526,23.833z M120.705,173.122c19.771,0.563,25.799-19.088,20.294-35.082
		c-1.648-4.943-4.179-9.524-5.224-14.628c-0.04,0.08,0,0.201-0.04,0.281c-7.836,13.583-26.965,15.11-38.98,6.349
		c-8.158-5.947-12.819-17.24-8.399-25.638c-0.563,0.322-1.085,0.723-1.688,1.045c-0.08,0.12-0.201,0.281-0.402,0.402
		c-7.394,5.063-17.561,4.822-24.875-0.402c-5.305-3.818-7.475-8.841-7.314-14.306c-10.529,4.862-23.91,0.201-30.822-8.76
		c-2.291-2.934-3.536-6.148-3.778-9.524c-5.546,11.172-9.403,23.227-11.373,35.765c15.994,18.325,34.841,33.475,57.064,43.722
		C82.931,160.544,103.827,163.116,120.705,173.122z M128.903,256.99c7.957-0.723,11.292-9.243,10.448-16.155
		c-0.643-5.586-3.536-9.926-7.676-13.543c-20.977-10.93-44.325-14.949-66.025-24.312c-17.842-7.675-35.122-17.28-50.473-29.255
		c17.441,47.66,59.837,81.537,113.082,83.667C128.421,257.191,128.582,257.03,128.903,256.99z M149.237,6.312
		c-7.274-1.366-14.708-2.13-22.223-2.17C86.547,3.86,51.063,25.078,29.323,56.222c-0.04,0.121-0.08,0.161-0.161,0.241
		c-1.608,2.331-3.175,4.702-4.621,7.113c-0.844,2.25-1.447,4.34-1.527,4.822c-1.206,6.39,1.849,11.774,6.711,15.672
		c7.274,5.827,16.034,6.791,24.513,3.376c0.04-0.04,0.08,0,0.121-0.04c-0.603-18.927,18.084-34.841,31.586-46.294
		C104.31,25.52,125.929,12.782,149.237,6.312z M127.175,222.551c33.153-23.669-9.082-48.785-29.617-55.456
		c-10.448-3.416-20.977-6.269-31.023-10.77c-22.705-10.127-42.637-25.036-58.993-43.682c-0.924,7.836-1.165,15.833-0.482,23.91
		c0.924,11.493,3.215,22.504,6.671,32.952c21.821,15.15,43.561,28.411,68.838,37.212
		C97.639,211.942,113.432,214.835,127.175,222.551z"/>
	<path style="fill:#1D1D1B;" d="M248.616,126.949c0.08,0.804-1.206,0.965-1.366,0.201c-0.442-2.411-1.206-4.742-2.411-6.912
		c-0.442-0.844,0.844-1.567,1.326-0.723C247.531,121.845,248.335,124.257,248.616,126.949z"/>
	<path style="fill:#1D1D1B;" d="M239.052,70.327c0.522,0.683-0.643,1.567-1.205,0.924c-1.728-1.849-3.938-2.893-6.47-2.813
		c-1.045,0.04-1.045-1.567,0-1.607C234.471,66.671,237.163,67.876,239.052,70.327z"/>
	<path style="fill:#1D1D1B;" d="M238.53,76.034c0.281,0.964-1.206,1.366-1.487,0.402c-0.723-2.532-2.733-4.099-5.264-4.661
		c-0.522-0.08-0.402-0.884,0.121-0.884C235.074,70.85,237.646,73.06,238.53,76.034z"/>
	<path style="fill:#CCECF8;" d="M213.052,84.272c27.969,29.336,27.849,76.433,21.097,113.685c0,0.08,0.04,0.121,0.04,0.201
		c-4.219,7.153-9.002,14.025-14.226,20.535c-8.519,10.609-18.606,22.102-30.662,28.853c-3.577,2.009-7.555,3.657-11.774,5.063
		c12.538-40.467,15.15-83.667,5.586-125.098c-1.005-4.3-2.773-8.76-5.144-12.9c-1.487-10.287-2.009-20.334,6.309-28.572
		c3.938-3.858,9.645-6.43,15.19-6.51C204.613,79.49,208.832,81.821,213.052,84.272z M225.148,114.813
		c0.321,0.804,1.728,0.201,1.406-0.603c-1.366-3.737-3.858-6.59-7.354-8.519c-0.763-0.442-1.447,0.723-0.683,1.165
		C221.491,108.745,223.741,111.558,225.148,114.813z M223.741,120.278c0.442,0.804,1.607,0.08,1.206-0.723
		c-1.768-3.576-4.099-7.032-7.153-9.645c-0.643-0.563-1.447,0.241-0.924,0.884C219.361,113.849,221.772,116.822,223.741,120.278z
		 M202.684,144.028c0.08,0.764,1.206,0.804,1.206,0c0-2.893-0.924-5.505-2.612-7.836c-0.482-0.683-1.607-0.04-1.125,0.643
		C201.679,139.005,202.443,141.416,202.684,144.028z M195.652,202.82c0.121-1.005-1.607-1.246-1.768-0.241
		c-0.603,3.858-1.487,7.836-1.607,11.775c-0.04,0.964,1.487,1.206,1.728,0.241C194.928,210.736,195.169,206.718,195.652,202.82z
		 M192.557,209.852c0.281-4.38-0.161-8.76-0.723-13.06c-0.121-0.844-1.406-0.884-1.366,0c0.281,4.34,0.201,8.68,0.362,13.06
		C190.91,210.937,192.477,210.937,192.557,209.852z"/>
	<path style="fill:#33B3E2;" d="M232.863,59.919c-12.699-1.527-17.199,16.918-12.699,27.527c-0.442-0.442-0.844-0.924-1.326-1.366
		c0.362-0.482,0.442-1.165-0.161-1.648c-10.046-9.082-24.111-11.172-34.962-2.17c-7.394,6.108-11.172,16.798-9.765,26.482
		c-7.756-9.604-19.008-14.708-30.26-5.144c-0.04,0.04-0.08,0-0.12,0.04c-6.309,3.496-8.72,9.564-8.278,16.677
		c0.08,0.683,0.161,1.326,0.241,2.009c-0.402-0.563-1.205-0.804-1.808-0.201c-8.198,8.238-18.003,12.739-29.496,7.957
		c-11.373-4.702-18.606-18.043-11.332-28.492c14.266-9.604,26.121-22.825,38.94-34.158c19.892-17.561,40.909-32.832,66.186-41.391
		C211.645,35.085,223.54,46.578,232.863,59.919z M215.423,64.501c0.402-0.643-0.563-1.406-1.085-0.844
		c-2.371,2.532-2.893,6.028-1.889,9.283c0.281,0.964,1.728,0.563,1.487-0.402C213.213,69.685,213.936,66.992,215.423,64.501z
		 M211.927,62.29c0.683-0.804-0.362-1.849-1.165-1.165c-2.25,2.009-3.456,4.541-3.777,7.515c-0.08,0.763,1.085,0.884,1.286,0.201
		C208.993,66.389,210.239,64.179,211.927,62.29z M170.174,43.122c0.723-0.563-0.241-1.768-1.005-1.286
		c-1.889,1.286-3.697,2.652-5.505,4.018c-0.844,0.643-0.08,2.009,0.804,1.407C166.396,45.935,168.285,44.569,170.174,43.122z
		 M165.03,92.831c0.844,0.723,1.929-0.362,1.206-1.206c-3.054-3.657-8.519-4.34-12.578-1.929c-0.924,0.563-0.121,1.849,0.844,1.447
		C158.118,89.496,162.056,90.26,165.03,92.831z M161.815,97.654c0.442,0.563,1.246-0.161,0.924-0.723
		c-2.25-4.3-7.756-2.773-11.292-1.286c-0.563,0.241-0.362,1.165,0.241,0.964C155.185,95.484,159.163,94.399,161.815,97.654z"/>
	<path style="fill:#1D1D1B;" d="M226.554,114.21c0.322,0.804-1.085,1.407-1.406,0.603c-1.407-3.255-3.657-6.068-6.631-7.957
		c-0.764-0.442-0.08-1.607,0.683-1.165C222.697,107.62,225.188,110.473,226.554,114.21z"/>
	<path style="fill:#1D1D1B;" d="M224.947,119.555c0.402,0.804-0.764,1.527-1.206,0.723c-1.969-3.456-4.38-6.43-6.872-9.484
		c-0.522-0.643,0.281-1.447,0.924-0.884C220.848,112.522,223.179,115.978,224.947,119.555z"/>
	<path style="fill:#1D1D1B;" d="M214.338,63.657c0.523-0.563,1.487,0.201,1.085,0.844c-1.487,2.492-2.21,5.184-1.487,8.037
		c0.241,0.965-1.206,1.366-1.487,0.402C211.445,69.685,211.967,66.188,214.338,63.657z"/>
	<path style="fill:#1D1D1B;" d="M210.761,61.125c0.804-0.683,1.849,0.362,1.165,1.165c-1.688,1.889-2.934,4.099-3.657,6.55
		c-0.201,0.683-1.366,0.563-1.286-0.201C207.305,65.666,208.511,63.134,210.761,61.125z"/>
	<path style="fill:#1D1D1B;" d="M203.89,144.028c0,0.804-1.125,0.764-1.206,0c-0.241-2.612-1.005-5.023-2.532-7.193
		c-0.482-0.683,0.643-1.326,1.125-0.643C202.965,138.523,203.89,141.135,203.89,144.028z"/>
	<path style="fill:#1D1D1B;" d="M193.883,202.578c0.161-1.005,1.889-0.763,1.768,0.241c-0.482,3.898-0.723,7.917-1.648,11.774
		c-0.241,0.964-1.768,0.723-1.728-0.241C192.397,210.415,193.281,206.436,193.883,202.578z"/>
	<path style="fill:#1D1D1B;" d="M191.834,196.792c0.563,4.3,1.005,8.68,0.723,13.06c-0.08,1.085-1.648,1.085-1.728,0
		c-0.161-4.38-0.08-8.72-0.362-13.06C190.427,195.908,191.713,195.948,191.834,196.792z"/>
	<path style="fill:#33B3E2;" d="M185.364,174.85c0.603,26.723-3.697,52.884-11.493,78.362c-0.08,0.161-0.04,0.322-0.04,0.482
		c-12.297,3.496-26.121,4.782-38.016,4.782c0-0.482-0.281-0.964-0.964-0.964c-0.04,0-0.04,0-0.08,0
		c4.179-2.13,6.872-6.791,7.515-11.694c1.085-8.037-2.612-16.315-9.564-20.454c-0.321-0.201-0.643-0.12-0.924,0
		c-1.005-0.683-2.049-1.246-3.094-1.848c21.178-11.091,11.212-36.649-4.541-48.183c9.564,0.442,17.883-5.586,21.298-15.15
		c6.389-17.722-15.23-40.186-0.965-54.21C180.421,88.732,184.842,152.025,185.364,174.85z M178.332,143.506
		c0.442-3.456-0.362-6.872-2.049-9.926c-0.442-0.804-1.648-0.08-1.246,0.723c1.527,2.893,2.009,5.988,1.849,9.202
		C176.845,144.47,178.211,144.43,178.332,143.506z M177.005,230.146c1.406-3.697,1.447-7.675,0.522-11.493
		c-0.241-0.884-1.728-0.723-1.607,0.201c0.482,3.697,0.08,7.193-0.723,10.81C174.916,230.869,176.563,231.271,177.005,230.146z
		 M177.005,147.524c0.121-1.688-0.241-3.175-1.045-4.702c-0.201-0.482-0.884-0.08-0.683,0.402c0.683,1.366,0.964,2.773,0.964,4.3
		C176.242,148.047,176.965,148.047,177.005,147.524z M173.268,234.647c0.763-2.893,1.005-5.787,0.924-8.72
		c-0.04-0.763-1.125-0.763-1.165,0c-0.08,2.813-0.522,5.586-1.085,8.319C171.781,235.129,173.027,235.491,173.268,234.647z
		 M160.65,189.076c1.768-4.099,1.406-8.479-0.764-12.377c-0.482-0.844-1.688-0.121-1.246,0.723
		c1.768,3.496,1.808,7.394,0.603,11.091C158.962,189.317,160.288,189.88,160.65,189.076z M146.665,218.291
		c0.402-0.844-0.764-1.567-1.206-0.723c-1.487,2.532-3.135,5.023-5.104,7.233c-0.522,0.603,0.322,1.447,0.884,0.884
		C143.531,223.515,145.379,221.184,146.665,218.291z M146.304,173.886c0.12-0.965-1.206-1.407-1.487-0.402
		c-0.643,2.572-2.09,4.943-4.26,6.55c-0.683,0.522-0.08,1.688,0.723,1.206C144.053,179.592,145.861,177.101,146.304,173.886z
		 M142.205,172.359c0.281-0.764-1.005-1.326-1.326-0.563c-1.085,2.612-2.893,4.742-5.385,6.148c-0.804,0.442-0.08,1.607,0.723,1.206
		C139.11,177.744,141.2,175.413,142.205,172.359z M140.436,219.497c0.08-0.563-0.723-0.844-0.884-0.241
		c-0.563,2.13-2.09,3.737-4.219,4.179c-0.563,0.121-0.322,0.884,0.201,0.804C138.106,223.837,140.075,222.109,140.436,219.497z"/>
	<path style="fill:#1D1D1B;" d="M176.282,133.58c1.688,3.054,2.492,6.47,2.049,9.926c-0.121,0.924-1.487,0.964-1.447,0
		c0.161-3.215-0.322-6.309-1.849-9.202C174.634,133.499,175.84,132.776,176.282,133.58z"/>
	<path style="fill:#1D1D1B;" d="M177.528,218.653c0.924,3.818,0.884,7.796-0.522,11.493c-0.442,1.125-2.09,0.723-1.808-0.482
		c0.804-3.617,1.206-7.113,0.723-10.81C175.8,217.93,177.287,217.769,177.528,218.653z"/>
	<path style="fill:#1D1D1B;" d="M175.961,142.822c0.804,1.527,1.165,3.014,1.045,4.702c-0.04,0.522-0.764,0.522-0.764,0
		c0-1.527-0.281-2.934-0.964-4.3C175.076,142.742,175.76,142.34,175.961,142.822z"/>
	<path style="fill:#1D1D1B;" d="M174.192,225.926c0.08,2.934-0.161,5.827-0.924,8.72c-0.241,0.844-1.487,0.482-1.326-0.402
		c0.563-2.733,1.005-5.506,1.085-8.319C173.067,225.163,174.152,225.163,174.192,225.926z"/>
	<path style="fill:#1D1D1B;" d="M169.169,41.836c0.764-0.482,1.728,0.723,1.005,1.286c-1.889,1.447-3.778,2.813-5.706,4.139
		c-0.884,0.603-1.648-0.764-0.804-1.407C165.472,44.488,167.28,43.122,169.169,41.836z"/>
	<path style="fill:#1D1D1B;" d="M166.236,91.626c0.723,0.844-0.362,1.929-1.206,1.206c-2.974-2.572-6.912-3.335-10.529-1.688
		c-0.964,0.402-1.768-0.884-0.844-1.447C157.716,87.286,163.182,87.969,166.236,91.626z"/>
	<path style="fill:#1D1D1B;" d="M162.739,96.93c0.322,0.563-0.482,1.286-0.924,0.723c-2.652-3.255-6.631-2.17-10.127-1.045
		c-0.603,0.201-0.804-0.723-0.241-0.964C154.984,94.158,160.489,92.631,162.739,96.93z"/>
	<path style="fill:#1D1D1B;" d="M159.886,176.699c2.17,3.898,2.532,8.278,0.764,12.377c-0.362,0.804-1.688,0.241-1.407-0.563
		c1.206-3.697,1.165-7.595-0.603-11.091C158.199,176.578,159.404,175.855,159.886,176.699z"/>
	<path style="fill:#CCECF8;" d="M153.818,7.236c14.507,3.215,28.251,8.921,40.708,16.597
		c-44.847,15.793-70.968,53.366-108.662,79.809c-0.241-0.04-0.522-0.04-0.804,0.08c-6.912,2.974-14.788,3.617-21.379-0.522
		c-3.335-2.13-5.104-4.863-6.068-7.917c0.08-0.201,0.161-0.402,0.121-0.643c-5.184-25.478,27.246-49.991,45.37-62.408
		C118.897,21.381,136.056,14.108,153.818,7.236z M127.135,58.553c0.522-0.402,0.08-1.206-0.522-0.884
		c-1.929,1.045-3.737,2.25-5.546,3.456c-0.643,0.402-0.08,1.366,0.563,1.005C123.518,60.964,125.367,59.839,127.135,58.553z
		 M126.854,63.616c0.603-0.643-0.362-1.607-0.964-0.964c-2.572,2.572-5.345,4.943-8.278,7.073c-0.643,0.442-0.08,1.487,0.603,1.045
		C121.469,68.8,124.322,66.47,126.854,63.616z M126.211,21.984c0.643-0.362,0.08-1.286-0.563-0.964
		c-2.813,1.527-5.063,3.496-6.912,6.068c-0.321,0.482,0.442,1.085,0.804,0.643C121.388,25.4,123.639,23.471,126.211,21.984z
		 M66.615,83.066c0.322-0.683-0.643-1.286-0.965-0.603c-1.527,2.974-2.25,5.988-2.21,9.323c0,0.844,1.246,0.844,1.286,0
		C64.767,88.773,65.41,85.799,66.615,83.066z M62.516,97.935c0.482,0.442,1.165-0.241,0.723-0.723
		c-2.13-2.331-3.014-5.626-2.331-8.72c0.161-0.884-1.165-1.286-1.407-0.362C58.538,91.787,59.623,95.443,62.516,97.935z"/>
	<path style="fill:#1D1D1B;" d="M145.46,217.568c0.442-0.844,1.607-0.121,1.206,0.723c-1.286,2.893-3.135,5.224-5.425,7.394
		c-0.563,0.563-1.407-0.281-0.884-0.884C142.325,222.591,143.973,220.1,145.46,217.568z"/>
	<path style="fill:#1D1D1B;" d="M144.817,173.484c0.281-1.005,1.607-0.563,1.487,0.402c-0.442,3.215-2.25,5.706-5.023,7.354
		c-0.804,0.482-1.406-0.683-0.723-1.206C142.727,178.427,144.174,176.056,144.817,173.484z"/>
	<path style="fill:#1D1D1B;" d="M140.878,171.796c0.322-0.764,1.607-0.201,1.326,0.563c-1.005,3.054-3.094,5.385-5.988,6.791
		c-0.804,0.402-1.527-0.764-0.723-1.206C137.985,176.538,139.793,174.408,140.878,171.796z"/>
	<path style="fill:#CCECF8;" d="M140.999,138.04c5.505,15.994-0.522,35.645-20.294,35.082
		c-16.878-10.006-37.775-12.578-55.537-20.776c-22.223-10.247-41.07-25.397-57.064-43.722c1.969-12.538,5.827-24.594,11.373-35.765
		c0.241,3.376,1.487,6.59,3.778,9.524c6.912,8.961,20.294,13.623,30.822,8.76c-0.161,5.465,2.009,10.488,7.314,14.306
		c7.314,5.224,17.481,5.465,24.875,0.402c0.201-0.12,0.321-0.281,0.402-0.402c0.603-0.322,1.125-0.723,1.688-1.045
		c-4.421,8.399,0.241,19.691,8.399,25.638c12.016,8.76,31.144,7.233,38.98-6.349c0.04-0.08,0-0.201,0.04-0.281
		C136.82,128.516,139.351,133.098,140.999,138.04z M138.588,147.203c1.286-3.858-0.723-8.037-4.22-9.966
		c-0.723-0.442-1.326,0.643-0.643,1.085c2.813,1.889,3.938,5.224,3.335,8.479C136.9,147.805,138.266,148.207,138.588,147.203z
		 M91.772,132.615c0.884,0.12,1.085-1.366,0.201-1.567c-3.978-0.844-7.394-2.853-10.006-5.988c-0.563-0.683-1.768,0.241-1.246,1.005
		C83.413,129.722,87.231,132.012,91.772,132.615z M88.316,127.632c0.924,0.442,1.728-0.884,0.844-1.407
		c-2.331-1.407-3.978-3.577-4.34-6.309c-0.121-0.884-1.487-0.964-1.447,0C83.614,123.212,85.342,126.145,88.316,127.632z
		 M51.264,101.069c1.005-0.281,0.563-1.768-0.442-1.567c-3.818,0.804-7.394,0.683-11.212-0.201
		c-0.804-0.201-1.045,0.924-0.321,1.205C43.107,102.034,47.326,102.155,51.264,101.069z M46.121,96.609
		c0.442-0.121,0.241-0.844-0.201-0.723c-2.331,0.643-4.621,0.522-6.872-0.362c-0.321-0.12-0.563,0.442-0.241,0.563
		C41.218,97.212,43.589,97.413,46.121,96.609z"/>
	<path style="fill:#1D1D1B;" d="M139.552,219.256c0.161-0.603,0.965-0.322,0.884,0.241c-0.362,2.612-2.331,4.34-4.903,4.742
		c-0.522,0.08-0.763-0.683-0.201-0.804C137.463,222.993,138.99,221.385,139.552,219.256z"/>
	<path style="fill:#CCECF8;" d="M139.351,240.835c0.844,6.912-2.492,15.431-10.448,16.155c-0.322,0.04-0.482,0.201-0.643,0.402
		c-53.246-2.13-95.642-36.006-113.082-83.667c15.351,11.975,32.631,21.58,50.473,29.255c21.7,9.363,45.048,13.382,66.025,24.312
		C135.815,230.909,138.708,235.249,139.351,240.835z M134.971,242.724c0.281,1.206,1.889,0.643,1.768-0.482
		c-0.563-3.898-3.416-6.872-7.073-8.158c-0.683-0.201-1.165,0.884-0.482,1.206C132.279,236.736,134.167,239.429,134.971,242.724z
		 M130.028,247.185c0.723-2.853,0-5.626-1.607-7.997c-0.442-0.643-1.487-0.08-1.045,0.603c1.366,2.25,1.688,4.621,1.447,7.233
		C128.742,247.707,129.868,247.828,130.028,247.185z M100.09,237.62c0.884,0.201,1.286-1.125,0.362-1.366
		c-2.29-0.643-4.38-1.567-6.389-2.893c-0.764-0.563-1.527,0.723-0.723,1.286C95.428,236.053,97.639,237.058,100.09,237.62z
		 M66.977,212.786c0.643,0.241,0.884-0.723,0.281-0.964c-2.853-1.085-5.747-2.17-8.64-3.295c-0.563-0.201-0.804,0.723-0.241,0.964
		C61.23,210.576,64.124,211.701,66.977,212.786z M62.999,207.16c0.482,0.121,0.683-0.603,0.201-0.723
		c-2.733-0.764-5.385-1.728-7.917-2.974c-0.563-0.281-1.045,0.522-0.482,0.804C57.453,205.592,60.105,206.557,62.999,207.16z"/>
	<path style="fill:#1D1D1B;" d="M134.368,137.237c3.496,1.929,5.506,6.108,4.22,9.966c-0.321,1.005-1.688,0.603-1.527-0.402
		c0.603-3.255-0.522-6.59-3.335-8.479C133.042,137.88,133.645,136.795,134.368,137.237z"/>
	<path style="fill:#1D1D1B;" d="M136.739,242.242c0.121,1.125-1.487,1.688-1.768,0.482c-0.804-3.295-2.692-5.988-5.787-7.434
		c-0.683-0.322-0.201-1.407,0.482-1.206C133.324,235.37,136.177,238.344,136.739,242.242z"/>
	<path style="fill:#33B3E2;" d="M127.014,4.142c7.515,0.04,14.949,0.804,22.223,2.17c-23.308,6.47-44.928,19.209-63.292,34.801
		C72.442,52.565,53.756,68.479,54.359,87.406c-0.04,0.04-0.08,0-0.121,0.04c-8.479,3.416-17.24,2.451-24.513-3.376
		c-4.863-3.898-7.917-9.283-6.711-15.672c0.08-0.482,0.683-2.572,1.527-4.822c1.447-2.411,3.014-4.782,4.621-7.113
		c0.08-0.08,0.121-0.12,0.161-0.241C51.063,25.078,86.547,3.86,127.014,4.142z M77.546,20.618c0.763-0.643,0.08-1.969-0.804-1.406
		c-2.773,1.728-5.425,3.576-8.037,5.546c-0.804,0.603-0.08,1.929,0.804,1.366C72.241,24.355,74.934,22.587,77.546,20.618z
		 M71.839,20.256c0.402-0.241,0-0.884-0.402-0.643c-2.693,1.728-4.943,3.777-7.033,6.189c-0.161,0.201,0.12,0.522,0.322,0.322
		C66.856,23.913,69.268,21.944,71.839,20.256z"/>
	<path style="fill:#1D1D1B;" d="M128.421,239.188c1.607,2.371,2.331,5.144,1.607,7.997c-0.161,0.643-1.286,0.522-1.206-0.161
		c0.241-2.612-0.08-4.983-1.447-7.233C126.934,239.107,127.979,238.545,128.421,239.188z"/>
	<path style="fill:#33B3E2;" d="M97.558,167.095c20.535,6.671,62.77,31.787,29.617,55.456
		c-13.743-7.716-29.536-10.609-44.606-15.833c-25.277-8.801-47.017-22.062-68.838-37.212c-3.456-10.448-5.747-21.459-6.671-32.952
		c-0.683-8.077-0.442-16.074,0.482-23.91c16.356,18.646,36.288,33.555,58.993,43.682C76.581,160.826,87.11,163.679,97.558,167.095z
		 M122.875,212.022c0.764,0.08,0.844-1.085,0.161-1.286c-3.175-1.005-6.349-1.969-9.363-3.496c-0.763-0.402-1.447,0.723-0.683,1.165
		C116.084,210.174,119.339,211.54,122.875,212.022z M119.5,215.96c0.804,0.442,1.487-0.723,0.723-1.206
		c-2.371-1.527-4.983-2.451-7.756-2.933c-0.683-0.121-1.005,0.884-0.281,1.045C114.798,213.549,117.169,214.634,119.5,215.96z
		 M90.486,189.639c1.085,0.281,1.527-1.326,0.442-1.688c-3.657-1.125-7.314-2.17-10.971-3.175c-1.326-0.362-1.889,1.648-0.563,2.009
		C83.051,187.83,86.748,188.795,90.486,189.639z M73.969,165.768c0.844,0.201,1.125-0.964,0.362-1.286
		c-3.536-1.286-7.032-2.733-10.368-4.461c-0.804-0.402-1.447,0.723-0.723,1.165C66.696,163.156,70.152,164.724,73.969,165.768z
		 M73.447,168.3c0.884,0.161,1.246-1.085,0.402-1.326c-3.456-0.924-6.791-2.21-9.886-4.018c-0.804-0.482-1.567,0.804-0.723,1.326
		C66.414,166.21,69.79,167.617,73.447,168.3z M26.791,168.099c0.522,0.201,0.884-0.643,0.362-0.884
		c-2.371-1.045-4.742-1.969-7.153-2.974c-0.402-0.161-0.683,0.522-0.281,0.723C22.049,166.01,24.42,167.095,26.791,168.099z
		 M25.747,171.877c0.844,0.121,1.165-1.005,0.362-1.326c-3.295-1.246-6.389-2.612-9.323-4.581c-0.603-0.442-1.366,0.522-0.804,1.045
		C18.754,169.466,22.049,171.314,25.747,171.877z M11.762,131.45c0.04-0.442-0.764-0.563-0.844-0.08
		c-0.201,1.165-0.362,2.331-0.563,3.496c-0.08,0.603,0.844,0.844,0.924,0.241C11.44,133.901,11.641,132.696,11.762,131.45z"/>
	<path style="fill:#1D1D1B;" d="M126.613,57.669c0.603-0.321,1.045,0.482,0.522,0.884c-1.768,1.286-3.617,2.411-5.505,3.577
		c-0.643,0.362-1.206-0.603-0.563-1.005C122.875,59.919,124.684,58.714,126.613,57.669z"/>
	<path style="fill:#1D1D1B;" d="M125.889,62.652c0.603-0.643,1.567,0.321,0.964,0.964c-2.532,2.853-5.385,5.184-8.64,7.153
		c-0.683,0.442-1.246-0.603-0.603-1.045C120.545,67.595,123.317,65.224,125.889,62.652z"/>
	<path style="fill:#1D1D1B;" d="M125.648,21.02c0.643-0.322,1.205,0.603,0.563,0.964c-2.572,1.487-4.822,3.416-6.671,5.747
		c-0.362,0.442-1.125-0.161-0.804-0.643C120.585,24.516,122.835,22.547,125.648,21.02z"/>
	<path style="fill:#1D1D1B;" d="M123.036,210.736c0.683,0.201,0.603,1.366-0.161,1.286c-3.536-0.482-6.791-1.849-9.886-3.617
		c-0.764-0.442-0.08-1.567,0.683-1.165C116.687,208.767,119.861,209.732,123.036,210.736z"/>
	<path style="fill:#1D1D1B;" d="M120.223,214.755c0.764,0.482,0.08,1.648-0.723,1.206c-2.331-1.326-4.702-2.411-7.314-3.094
		c-0.723-0.161-0.402-1.165,0.281-1.045C115.24,212.303,117.852,213.228,120.223,214.755z"/>
	<path style="fill:#1D1D1B;" d="M100.452,236.254c0.924,0.241,0.522,1.567-0.362,1.366c-2.451-0.563-4.662-1.567-6.751-2.974
		c-0.804-0.563-0.04-1.848,0.723-1.286C96.071,234.687,98.161,235.611,100.452,236.254z"/>
	<path style="fill:#1D1D1B;" d="M91.973,131.048c0.884,0.201,0.683,1.688-0.201,1.567c-4.541-0.603-8.359-2.893-11.051-6.55
		c-0.522-0.764,0.683-1.688,1.246-1.005C84.578,128.195,87.994,130.204,91.973,131.048z"/>
	<path style="fill:#1D1D1B;" d="M90.928,187.951c1.085,0.362,0.643,1.969-0.442,1.688c-3.737-0.844-7.434-1.808-11.091-2.853
		c-1.326-0.362-0.763-2.371,0.563-2.009C83.614,185.781,87.271,186.826,90.928,187.951z"/>
	<path style="fill:#1D1D1B;" d="M89.16,126.226c0.884,0.522,0.08,1.848-0.844,1.407c-2.974-1.487-4.702-4.421-4.943-7.716
		c-0.04-0.964,1.326-0.884,1.447,0C85.181,122.649,86.829,124.819,89.16,126.226z"/>
	<path style="fill:#1D1D1B;" d="M76.742,19.211c0.884-0.563,1.567,0.764,0.804,1.406c-2.612,1.969-5.305,3.737-8.037,5.506
		c-0.884,0.563-1.607-0.764-0.804-1.366C71.317,22.788,73.969,20.939,76.742,19.211z"/>
	<path style="fill:#1D1D1B;" d="M74.331,164.482c0.764,0.322,0.482,1.487-0.362,1.286c-3.818-1.045-7.274-2.612-10.73-4.581
		c-0.723-0.442-0.08-1.567,0.723-1.165C67.299,161.75,70.795,163.197,74.331,164.482z"/>
	<path style="fill:#1D1D1B;" d="M73.849,166.974c0.844,0.241,0.482,1.487-0.402,1.326c-3.657-0.683-7.033-2.09-10.207-4.019
		c-0.844-0.522-0.08-1.808,0.723-1.326C67.057,164.764,70.393,166.05,73.849,166.974z"/>
	<path style="fill:#1D1D1B;" d="M71.438,19.613c0.402-0.241,0.804,0.402,0.402,0.643c-2.572,1.688-4.983,3.657-7.113,5.867
		c-0.201,0.201-0.482-0.121-0.322-0.322C66.495,23.391,68.745,21.341,71.438,19.613z"/>
	<path style="fill:#1D1D1B;" d="M67.258,211.821c0.603,0.241,0.362,1.205-0.281,0.964c-2.853-1.085-5.747-2.21-8.6-3.295
		c-0.563-0.241-0.321-1.165,0.241-0.964C61.512,209.651,64.405,210.736,67.258,211.821z"/>
	<path style="fill:#1D1D1B;" d="M65.651,82.464c0.322-0.683,1.286-0.08,0.965,0.603c-1.206,2.733-1.848,5.706-1.889,8.72
		c-0.04,0.844-1.286,0.844-1.286,0C63.4,88.451,64.124,85.437,65.651,82.464z"/>
	<path style="fill:#1D1D1B;" d="M63.2,206.436c0.482,0.12,0.281,0.844-0.201,0.723c-2.893-0.603-5.546-1.567-8.198-2.893
		c-0.563-0.281-0.08-1.085,0.482-0.804C57.815,204.708,60.467,205.673,63.2,206.436z"/>
	<path style="fill:#1D1D1B;" d="M63.24,97.212c0.442,0.482-0.241,1.165-0.723,0.723c-2.893-2.492-3.978-6.148-3.014-9.805
		c0.241-0.924,1.567-0.522,1.407,0.362C60.226,91.586,61.11,94.881,63.24,97.212z"/>
	<path style="fill:#1D1D1B;" d="M50.822,99.502c1.005-0.201,1.447,1.286,0.442,1.567c-3.938,1.085-8.158,0.965-11.975-0.563
		c-0.723-0.281-0.482-1.407,0.321-1.205C43.428,100.186,47.005,100.306,50.822,99.502z"/>
	<path style="fill:#1D1D1B;" d="M45.92,95.886c0.442-0.121,0.643,0.603,0.201,0.723c-2.532,0.804-4.903,0.603-7.314-0.522
		c-0.321-0.121-0.08-0.683,0.241-0.563C41.298,96.408,43.589,96.529,45.92,95.886z"/>
	<path style="fill:#1D1D1B;" d="M27.153,167.215c0.522,0.241,0.161,1.085-0.362,0.884c-2.371-1.005-4.742-2.09-7.073-3.134
		c-0.402-0.201-0.121-0.884,0.281-0.723C22.411,165.246,24.782,166.17,27.153,167.215z"/>
	<path style="fill:#1D1D1B;" d="M26.108,170.551c0.804,0.322,0.482,1.447-0.362,1.326c-3.697-0.563-6.992-2.411-9.765-4.862
		c-0.563-0.522,0.201-1.487,0.804-1.045C19.719,167.938,22.813,169.305,26.108,170.551z"/>
	<path style="fill:#1D1D1B;" d="M10.918,131.369c0.08-0.482,0.884-0.362,0.844,0.08c-0.121,1.246-0.321,2.451-0.482,3.657
		c-0.08,0.603-1.005,0.362-0.924-0.241C10.556,133.7,10.717,132.535,10.918,131.369z"/>
</g>
<g>
</g>
<g>
</g>
<g>
</g>
<g>
</g>
<g>
</g>
<g>
</g>
<g>
</g>
<g>
</g>
<g>
</g>
<g>
</g>
<g>
</g>
<g>
</g>
<g>
</g>
<g>
</g>
<g>
</g>
</svg>
